<?xml version="1.0" encoding="UTF-8"?>
<!DOCTYPE svg PUBLIC "-//W3C//DTD SVG 1.1//EN" "http://www.w3.org/Graphics/SVG/1.1/DTD/svg11.dtd">
<!-- Creator: CorelDRAW -->
<svg xmlns="http://www.w3.org/2000/svg" xml:space="preserve" width="1200px" height="1200px" style="shape-rendering:geometricPrecision; text-rendering:geometricPrecision; image-rendering:optimizeQuality; fill-rule:evenodd; clip-rule:evenodd"
viewBox="0 0 1200 1200"
 xmlns:xlink="http://www.w3.org/1999/xlink">
 <defs>
  <style type="text/css">
   <![CDATA[
    .fil1 {fill:white}
    .fil3 {fill:#FF6633}
    .fil2 {fill:#FFCC00}
    .fil4 {fill:white;fill-rule:nonzero}
    .fil0 {fill:url(#id0)}
   ]]>
  </style>
  <linearGradient id="id0" gradientUnits="userSpaceOnUse" x1="-44.4684" y1="45.3468" x2="1164.66" y2="1154.65">
   <stop offset="0" style="stop-color:#AD4499"/>
   <stop offset="1" style="stop-color:#AD4369"/>
  </linearGradient>
 </defs>
 <g id="Layer_x0020_1">
  <metadata id="CorelCorpID_0Corel-Layer"/>
  <polygon class="fil0" points="-0,1200 1120.19,1200 1120.19,0 -0,0 "/>
  <path class="fil1" d="M588.632 1063.87l-158.861 0c-26.7588,0 -48.5304,-21.7704 -48.5304,-48.5328l0 -130.026c-0.1044,-12.8208 4.8672,-24.9972 14.0052,-34.2012 9.1668,-9.2388 21.3648,-14.3292 34.35,-14.3292l340.63 0c26.7624,0 48.5328,21.768 48.5328,48.5304l0 130.022c0,26.7624 -21.7704,48.5328 -48.5328,48.5328l-107.971 0 21.672 53.0544 -95.2944 -53.0508zm-176.994 -182.153c2.394,-3.2484 5.9844,-4.9596 10.7796,-5.3028 8.7252,-0.6828 13.6812,3.42 14.8848,12.3216 5.2956,35.7564 11.1192,66.0372 17.2788,90.84l37.4616 -71.3424c3.426,-6.5028 7.7052,-9.9216 12.8364,-10.2612 7.5276,-0.5148 12.1416,4.2768 14.0268,14.3736 4.2732,22.7484 9.7536,42.0852 16.2564,58.5084 4.4424,-43.4532 11.9724,-74.7708 22.5744,-94.098 2.5752,-4.794 6.3372,-7.1916 11.2968,-7.5252 3.9336,-0.3456 7.5312,0.8508 10.7796,3.4128 3.2508,2.5752 4.962,5.82 5.3052,9.7632 0.168,3.0708 -0.3432,5.6352 -1.7148,8.2104 -6.6708,12.3096 -12.138,33.0132 -16.5924,61.7532 -4.2804,27.8832 -5.8224,49.6188 -4.794,65.1828 0.3396,4.2804 -0.336,8.0424 -2.0508,11.2932 -2.0508,3.7656 -5.1216,5.82 -9.0648,6.156 -4.4448,0.3432 -9.0648,-1.7148 -13.5132,-6.3336 -15.9132,-16.2492 -28.5744,-40.548 -37.8144,-72.8784 -11.1192,21.9048 -19.326,38.3196 -24.6312,49.2696 -10.0992,19.3416 -18.6528,29.2668 -25.8408,29.7756 -4.62,0.3432 -8.5476,-3.5904 -11.9724,-11.7984 -8.7216,-22.416 -18.132,-65.7 -28.2228,-129.86 -0.5196,-4.44 0.3312,-8.3808 2.7312,-11.46zm260.563 26.8632c-6.1632,-10.7796 -15.3984,-17.2752 -27.378,-19.8432 -3.2448,-0.6888 -6.3312,-1.032 -9.2424,-1.032 -16.4208,0 -29.766,8.5572 -40.1988,25.6608 -8.8968,14.5512 -13.344,30.6288 -13.344,48.2532 0,13.17 2.7336,24.4608 8.22,33.8712 6.1464,10.782 15.2208,17.2812 27.3648,19.8468 3.2508,0.6828 6.324,1.0284 9.2388,1.0284 16.5888,0 29.9436,-8.5572 40.1988,-25.6632 8.8992,-14.7072 13.3476,-30.7944 13.3476,-48.4224 0,-13.3416 -2.7336,-24.4632 -8.2068,-33.6996l0 0zm-21.558 47.3904c-2.3976,11.2932 -6.6768,19.6728 -13.002,25.3176 -4.9596,4.4484 -9.588,6.3336 -13.8648,5.4804 -4.1088,-0.8604 -7.5252,-4.4448 -10.0968,-11.1216 -2.0508,-5.3052 -3.0792,-10.608 -3.0792,-15.57 0,-4.2804 0.3492,-8.55 1.2,-12.4872 1.5396,-7.014 4.4484,-13.8588 9.0708,-20.3676 5.6424,-8.3784 11.6304,-11.7948 17.7924,-10.5984 4.1016,0.8508 7.5312,4.4484 10.0896,11.1192 2.0508,5.3028 3.0768,10.6104 3.0768,15.5676 0.0036,4.4436 -0.336,8.7204 -1.1868,12.66l0 0zm128.819 -47.3904c-6.1536,-10.7796 -15.2244,-17.2752 -27.372,-19.8432 -3.2508,-0.6888 -6.324,-1.032 -9.2364,-1.032 -16.428,0 -29.766,8.5572 -40.2024,25.6608 -8.9028,14.5512 -13.344,30.6288 -13.344,48.2532 0,13.17 2.7336,24.4608 8.2044,33.8712 6.1632,10.782 15.24,17.2812 27.378,19.8468 3.2508,0.6828 6.3312,1.0284 9.2424,1.0284 16.5924,0 29.9376,-8.5572 40.2024,-25.6632 8.8932,-14.7072 13.3476,-30.7944 13.3476,-48.4224 0,-13.3416 -2.7336,-24.4632 -8.22,-33.6996l0 0zm-21.5484 47.3904c-2.3976,11.2932 -6.6768,19.6728 -13.008,25.3176 -4.9596,4.4484 -9.582,6.3336 -13.8588,5.4804 -4.1052,-0.8604 -7.5312,-4.4448 -10.0932,-11.1216 -2.0508,-5.3052 -3.0732,-10.608 -3.0732,-15.57 0,-4.2804 0.336,-8.55 1.194,-12.4872 1.5336,-7.014 4.4388,-13.8588 9.0648,-20.3676 5.6448,-8.3784 11.6364,-11.7948 17.7924,-10.5984 4.1088,0.8508 7.5276,4.4484 10.0968,11.1192 2.0508,5.3028 3.0828,10.6104 3.0828,15.5676 0.0024,4.4436 -0.5124,8.7204 -1.1976,12.66l0 0z"/>
  <polygon class="fil2" points="479.309,481.146 1120.19,481.146 1120.19,560.957 1200,481.146 1200,80.2632 479.309,80.2632 433.396,280.704 "/>
  <polygon class="fil3" points="1120.19,560.957 1200,481.146 1120.19,481.146 "/>
  <path class="fil4" d="M716.435 269.773l0 32.448 -122.41 0c1.3572,-12.258 5.3016,-23.88 11.9604,-34.8648 6.6168,-10.986 19.7232,-25.5336 39.234,-43.6872 15.7788,-14.634 25.4064,-24.6012 28.9692,-29.8188 4.7928,-7.2096 7.2108,-14.3352 7.2108,-21.3768 0,-7.7616 -2.0784,-13.7424 -6.2772,-17.9412 -4.1988,-4.1988 -9.9684,-6.2772 -17.3484,-6.2772 -7.2948,0 -13.0632,2.2056 -17.3892,6.5736 -4.284,4.4112 -6.7872,11.7072 -7.4652,21.8868l-34.7808 -3.4788c2.0784,-19.2132 8.568,-32.9988 19.5108,-41.3964 10.9428,-8.3556 24.6012,-12.5556 41.016,-12.5556 17.9832,0 32.1072,4.878 42.372,14.5488 10.2648,9.7128 15.3972,21.7584 15.3972,36.18 0,8.1864 -1.4844,15.99 -4.4112,23.4132 -2.9268,7.422 -7.5924,15.1848 -13.9548,23.286 -4.242,5.3868 -11.8764,13.1484 -22.8624,23.2428 -11.0268,10.0956 -18.0264,16.8396 -20.952,20.148 -2.9268,3.3084 -5.3448,6.5316 -7.1688,9.6696l69.3492 0zm82.6236 -150.488c17.6868,0 31.4724,6.3204 41.3976,18.918 11.8332,14.8872 17.772,39.6156 17.772,74.184 0,34.44 -5.9808,59.2104 -17.8992,74.31 -9.84,12.4284 -23.5836,18.6204 -41.2704,18.6204 -17.6868,0 -31.9812,-6.786 -42.8388,-20.4432 -10.8588,-13.6152 -16.2876,-37.92 -16.2876,-72.87 0,-34.3128 5.9808,-58.9992 17.8992,-74.0556 9.84,-12.4284 23.5824,-18.6636 41.2272,-18.6636zm0 28.9704c-4.1988,0 -7.974,1.3572 -11.2824,4.0284 -3.3084,2.7156 -5.8956,7.5504 -7.7196,14.5068 -2.3748,9.0336 -3.6048,24.2184 -3.6048,45.5964 0,21.3768 1.1028,36.0516 3.2232,44.0256 2.1636,8.0172 4.878,13.3188 8.1444,15.9912 3.3084,2.6292 7.0404,3.9864 11.2392,3.9864 4.242,0 8.0172,-1.3572 11.3256,-4.0716 3.3084,-2.6724 5.8956,-7.5072 7.7196,-14.4636 2.3748,-8.9496 3.6048,-24.0912 3.6048,-45.468 0,-21.378 -1.1028,-36.0528 -3.2232,-44.07 -2.1636,-7.974 -4.878,-13.3176 -8.1444,-16.0332 -3.3084,-2.6712 -7.0404,-4.0284 -11.2824,-4.0284z"/>
  <path class="fil4" d="M1036.3 137.388c0,-6.1464 1.3416,-10.6956 4.0392,-13.6644 2.6976,-2.9532 6.3528,-4.4388 10.9668,-4.4388 4.7724,0 8.508,1.4688 11.2068,4.422 2.6976,2.9376 4.038,7.5036 4.038,13.6812 0,6.1296 -1.3404,10.6956 -4.038,13.6488 -2.6988,2.97 -6.354,4.4376 -10.968,4.4376 -4.7724,0 -8.508,-1.4676 -11.2056,-4.4052 -2.6976,-2.9532 -4.0392,-7.5192 -4.0392,-13.6812zm10.2324 -0.096c0,4.4544 0.5268,7.4556 1.5492,8.9724 0.7824,1.1328 1.8516,1.692 3.2244,1.692 1.4052,0 2.49,-0.5592 3.2724,-1.692 1.0056,-1.5168 1.5,-4.518 1.5,-8.9724 0,-4.47 -0.4944,-7.4388 -1.5,-8.9388 -0.7824,-1.1496 -1.8672,-1.7244 -3.2724,-1.7244 -1.3728,0 -2.442,0.558 -3.2244,1.6764 -1.0224,1.5324 -1.5492,4.5168 -1.5492,8.9868zm14.7828 54.3408l-9.7224 0 36.5256 -72.348 9.45 0 -36.2532 72.348zm21.2316 -18.0072c0,-6.1464 1.3572,-10.6956 4.0548,-13.6488 2.6976,-2.97 6.3852,-4.4544 11.0628,-4.4544 4.6932,0 8.3964,1.4844 11.094,4.4544 2.6988,2.9532 4.0548,7.5024 4.0548,13.6488 0,6.1776 -1.356,10.7436 -4.0548,13.7124 -2.6976,2.9532 -6.3528,4.4376 -10.9668,4.4376 -4.7724,0 -8.4924,-1.4844 -11.19,-4.4376 -2.6976,-2.9688 -4.0548,-7.5348 -4.0548,-13.7124zm10.248 -0.048c0,4.4544 0.5112,7.4388 1.5324,8.94 0.7824,1.1484 1.8684,1.7232 3.2412,1.7232 1.4052,0 2.4744,-0.558 3.2244,-1.6752 1.0224,-1.5324 1.5324,-4.5336 1.5324,-8.988 0,-4.4544 -0.4944,-7.4556 -1.4844,-8.9712 -0.7824,-1.134 -1.8672,-1.692 -3.2724,-1.692 -1.4052,0 -2.49,0.558 -3.2412,1.692 -1.0212,1.5156 -1.5324,4.5168 -1.5324,8.9712z"/>
  <path class="fil4" d="M930.367 270.649c0,-11.382 3.0492,-20.2896 9.1632,-26.7228 6.114,-6.4332 14.0004,-9.6576 23.6736,-9.6576 6.3216,0 12.0372,1.5156 17.1132,4.5336 5.076,3.0324 8.9556,7.2468 11.622,12.6588 2.6652,5.3952 3.99,11.5416 3.99,18.39 0,6.96 -1.3884,13.1856 -4.1976,18.6612 -2.8104,5.4912 -6.7848,9.642 -11.9256,12.468 -5.1564,2.8248 -10.6956,4.23 -16.65,4.23 -6.4644,0 -12.228,-1.548 -17.304,-4.6776 -5.0928,-3.1128 -8.94,-7.3752 -11.5584,-12.7704 -2.6172,-5.3796 -3.9264,-11.0952 -3.9264,-17.1132zm9.354 0.144c0,8.2692 2.22,14.766 6.6576,19.5228 4.4532,4.758 10.0248,7.1364 16.7292,7.1364 6.8328,0 12.4524,-2.3952 16.8576,-7.2 4.4064,-4.8048 6.6252,-11.6208 6.6252,-20.4492 0,-5.5716 -0.9576,-10.44 -2.8416,-14.6064 -1.884,-4.1664 -4.6452,-7.3908 -8.2692,-9.69 -3.6396,-2.2824 -7.71,-3.432 -12.228,-3.432 -6.4332,0 -11.9568,2.2032 -16.5864,6.6252 -4.6296,4.4052 -6.9444,11.7804 -6.9444,22.0932zm68.3724 33.252l0 -68.5632 46.2624 0 0 8.0928 -37.1796 0 0 21.2316 32.1672 0 0 8.094 -32.1672 0 0 31.1448 -9.0828 0zm58.506 0l0 -68.5632 46.2624 0 0 8.0928 -37.1796 0 0 21.2316 32.1672 0 0 8.094 -32.1672 0 0 31.1448 -9.0828 0z"/>
  <path class="fil4" d="M656.49 414.767l8.3604 -0.7332c0.3888,3.3528 1.3092,6.0984 2.76,8.2512 1.4508,2.1516 3.6972,3.8832 6.738,5.2092 3.042,1.326 6.474,1.9812 10.2792,1.9812 3.3852,0 6.3636,-0.4992 8.9532,-1.4976 2.5896,-1.014 4.524,-2.3868 5.7864,-4.134 1.2636,-1.7616 1.9032,-3.6648 1.9032,-5.7396 0,-2.106 -0.6084,-3.93 -1.8408,-5.5056 -1.2156,-1.5756 -3.228,-2.886 -6.0204,-3.9468 -1.8096,-0.702 -5.7708,-1.794 -11.9316,-3.2748 -6.1464,-1.482 -10.4664,-2.8704 -12.9312,-4.1808 -3.198,-1.6692 -5.5836,-3.7584 -7.1592,-6.2388 -1.56,-2.4804 -2.34,-5.2572 -2.34,-8.3448 0,-3.3696 0.9516,-6.5352 2.8704,-9.468 1.9188,-2.9484 4.7256,-5.178 8.4072,-6.7068 3.696,-1.5132 7.7832,-2.2776 12.2904,-2.2776 4.9764,0 9.3432,0.7956 13.1496,2.4024 3.7896,1.5912 6.7068,3.9456 8.7504,7.05 2.028,3.1044 3.1344,6.6288 3.2904,10.56l-8.5008 0.6396c-0.4668,-4.2276 -2.0112,-7.4412 -4.6476,-9.5928 -2.6364,-2.1684 -6.5196,-3.2448 -11.6676,-3.2448 -5.3652,0 -9.2652,0.9828 -11.7288,2.9484 -2.4492,1.9656 -3.6816,4.3356 -3.6816,7.0968 0,2.418 0.8736,4.398 2.6052,5.9424 1.716,1.56 6.1608,3.1512 13.3668,4.7736 7.206,1.6368 12.1512,3.0564 14.8344,4.2732 3.8988,1.8096 6.7848,4.0872 8.6412,6.8316 1.8552,2.7612 2.7756,5.9436 2.7756,9.5304 0,3.5724 -1.014,6.9252 -3.0564,10.0764 -2.0436,3.1512 -4.9764,5.5992 -8.7972,7.362 -3.822,1.7472 -8.1264,2.6208 -12.9,2.6208 -6.0672,0 -11.1528,-0.8736 -15.2388,-2.652 -4.1028,-1.7628 -7.3152,-4.4136 -9.6552,-7.9704 -2.3244,-3.54 -3.5568,-7.5648 -3.6648,-12.0408zm58.0704 21.5244l25.7364 -66.9924 9.546 0 27.4212 66.9924 -10.1076 0 -7.8144 -20.2932 -28.014 0 -7.3464 20.2932 -9.4212 0zm19.326 -27.5148l22.7256 0 -7.0032 -18.546c-2.1216,-5.6304 -3.7128,-10.2624 -4.7424,-13.8972 -0.8568,4.3056 -2.058,8.5632 -3.618,12.8064l-7.362 19.6368zm62.6568 27.5148l-25.9548 -66.9924 9.6084 0 17.4072 48.6648c1.404,3.9 2.5728,7.5648 3.5088,10.9656 1.0452,-3.6504 2.2464,-7.2996 3.6192,-10.9656l18.0936 -48.6648 9.0468 0 -26.2356 66.9924 -9.0936 0zm43.4712 0l0 -66.9924 48.4308 0 0 7.908 -39.5712 0 0 20.5116 37.0608 0 0 7.8612 -37.0608 0 0 22.8036 41.1312 0 0 7.908 -49.9908 0zm129.368 -9.9204l0 -19.1388c-5.9736,-1.7148 -10.356,-4.2888 -13.1484,-7.752 -2.7768,-3.462 -4.1808,-7.6584 -4.1808,-12.5868 0,-4.992 1.5756,-9.1872 4.7268,-12.588 3.1656,-3.3996 7.362,-5.3496 12.6024,-5.88l0 -4.5228 6.6144 0 0 4.5228c4.8504,0.5928 8.7036,2.2308 11.5728,4.9596 2.8548,2.73 4.68,6.3804 5.4756,10.95l-11.5584 1.5132c-0.702,-3.6036 -2.5272,-6.036 -5.49,-7.3152l0 17.8596c7.3152,1.98 12.306,4.554 14.9424,7.7052 2.652,3.15 3.9768,7.1904 3.9768,12.1344 0,5.5068 -1.668,10.1544 -4.9908,13.9296 -3.3384,3.7896 -7.986,6.0984 -13.9284,6.9564l0 8.5476 -6.6144 0 0 -8.3292c-5.2716,-0.6396 -9.5616,-2.6052 -12.852,-5.8956 -3.2916,-3.276 -5.3808,-7.9236 -6.3012,-13.9296l11.9316 -1.2792c0.4836,2.4336 1.404,4.5396 2.7456,6.3024 1.326,1.7616 2.8236,3.0408 4.476,3.8364zm0 -47.9784c-1.8084,0.6084 -3.228,1.6536 -4.3044,3.1032 -1.0608,1.4664 -1.5912,3.0888 -1.5912,4.8516 0,1.6068 0.4836,3.12 1.4508,4.4916 0.9828,1.3884 2.4648,2.5116 4.4448,3.3696l0 -15.816zm6.6144 48.618c2.292,-0.4212 4.1484,-1.482 5.5836,-3.1668 1.4352,-1.6992 2.1528,-3.6804 2.1528,-5.9736 0,-2.0436 -0.6084,-3.7896 -1.8096,-5.2716 -1.2012,-1.482 -3.1824,-2.6208 -5.9268,-3.4008l0 17.8128zm27.2496 -7.9548l12.7896 -1.3104c0.3588,2.886 1.4508,5.1792 3.2448,6.8628 1.7928,1.7004 3.8676,2.5428 6.2076,2.5428 2.6832,0 4.9596,-1.092 6.816,-3.2604 1.8564,-2.1828 2.7924,-5.4744 2.7924,-9.8568 0,-4.1028 -0.9204,-7.1916 -2.7768,-9.2496 -1.8408,-2.0592 -4.242,-3.0888 -7.1904,-3.0888 -3.6816,0 -6.9876,1.638 -9.9204,4.8972l-10.4196 -1.512 6.5832 -34.8612 33.9564 0 0 12.0096 -24.2244 0 -2.0112 11.3868c2.8692,-1.4352 5.7864,-2.1528 8.7816,-2.1528 5.6928,0 10.5276,2.0748 14.4744,6.2088 3.9612,4.1484 5.9424,9.5292 5.9424,16.1436 0,5.5056 -1.5912,10.434 -4.788,14.7552 -4.368,5.9112 -10.404,8.8596 -18.1404,8.8596 -6.192,0 -11.2308,-1.6536 -15.1296,-4.9764 -3.9,-3.3216 -6.24,-7.7832 -6.9876,-13.398z"/>
  <polygon class="fil2" points="1120.19,707.266 1120.19,787.076 1200,707.266 1200,523.58 278.815,523.58 278.815,707.266 "/>
  <polygon class="fil3" points="1120.19,787.076 1200,707.266 1120.19,707.266 "/>
  <path class="fil4" d="M337.813 654.883l0 -72.7284 52.578 0 0 8.5848 -42.96 0 0 22.2672 40.2336 0 0 8.5344 -40.2336 0 0 24.7572 44.6532 0 0 8.5848 -54.2712 0zm67.4628 0l0 -72.7284 9.8724 0 38.2008 57.0984 0 -57.0984 9.2292 0 0 72.7284 -9.8724 0 -38.202 -57.15 0 57.15 -9.228 0zm73.4736 0l0 -72.7284 25.0452 0c5.6556,0 9.9732,0.3552 12.954,1.0488 4.1652,0.9492 7.722,2.6928 10.668,5.1996 3.8268,3.2508 6.7056,7.3824 8.6016,12.4284 1.914,5.046 2.862,10.8036 2.862,17.2896 0,5.52 -0.6432,10.4136 -1.9476,14.6808 -1.2864,4.2672 -2.9292,7.806 -4.9608,10.6008 -2.0148,2.7936 -4.2168,4.9944 -6.6216,6.5868 -2.3868,1.608 -5.2824,2.8272 -8.67,3.6576 -3.4032,0.8292 -7.2972,1.236 -11.6832,1.236l-26.2476 0zm9.6192 -8.5848l15.528 0c4.7916,0 8.568,-0.4404 11.2944,-1.338 2.7264,-0.8976 4.8936,-2.1504 6.5196,-3.7764 2.286,-2.2692 4.0632,-5.3508 5.334,-9.1944 1.2696,-3.8616 1.9128,-8.5176 1.9128,-14.0208 0,-7.6032 -1.2528,-13.446 -3.7416,-17.526 -2.5068,-4.098 -5.538,-6.8244 -9.1104,-8.2128 -2.574,-0.9996 -6.7404,-1.4904 -12.4464,-1.4904l-15.2904 0 0 55.5588zm60.486 -14.7828l9.0768 -0.7968c0.4224,3.6408 1.422,6.6216 2.9964,8.958 1.5756,2.3376 4.014,4.2168 7.3152,5.6556 3.3024,1.44 7.0272,2.1504 11.16,2.1504 3.6744,0 6.9084,-0.5412 9.7188,-1.6248 2.8116,-1.1004 4.9116,-2.5908 6.2832,-4.488 1.3716,-1.9128 2.0652,-3.9792 2.0652,-6.2316 0,-2.286 -0.66,-4.2672 -1.998,-5.9772 -1.3212,-1.71 -3.5052,-3.132 -6.5364,-4.284 -1.9644,-0.762 -6.2652,-1.9476 -12.954,-3.5556 -6.672,-1.6092 -11.3616,-3.1164 -14.0376,-4.5384 -3.4716,-1.812 -6.0624,-4.0812 -7.7724,-6.774 -1.6932,-2.6916 -2.5404,-5.706 -2.5404,-9.0588 0,-3.6576 1.0332,-7.0956 3.1164,-10.2792 2.082,-3.2004 5.13,-5.6208 9.1272,-7.2804 4.0128,-1.6428 8.4492,-2.4732 13.3428,-2.4732 5.4024,0 10.1436,0.864 14.2752,2.6088 4.1148,1.7268 7.2816,4.284 9.4992,7.6536 2.202,3.3696 3.4044,7.1964 3.5736,11.4636l-9.2292 0.6948c-0.5076,-4.59 -2.184,-8.0772 -5.046,-10.4148 -2.862,-2.3532 -7.0776,-3.522 -12.666,-3.522 -5.8248,0 -10.0584,1.0668 -12.7344,3.2004 -2.658,2.1336 -3.996,4.7076 -3.996,7.7052 0,2.6244 0.948,4.7748 2.8284,6.4512 1.8624,1.6932 6.6888,3.4212 14.5116,5.1816 7.8228,1.7784 13.1904,3.3192 16.104,4.6404 4.2324,1.9632 7.3656,4.4364 9.3804,7.416 2.0148,2.9976 3.0144,6.4524 3.0144,10.3464 0,3.8784 -1.1004,7.5192 -3.3192,10.9392 -2.2176,3.42 -5.4012,6.0792 -9.5508,7.992 -4.1484,1.8972 -8.8212,2.8452 -14.0028,2.8452 -6.588,0 -12.108,-0.948 -16.5444,-2.8788 -4.4532,-1.9128 -7.9416,-4.7916 -10.482,-8.6532 -2.5224,-3.8436 -3.8604,-8.2128 -3.9792,-13.0716zm100.906 23.3676l0 -72.7284 9.618 0 0 72.7284 -9.618 0zm26.484 0l0 -72.7284 9.8724 0 38.2008 57.0984 0 -57.0984 9.2292 0 0 72.7284 -9.8724 0 -38.202 -57.15 0 57.15 -9.228 0zm131.707 0l-8.9232 0 0 -56.8968c-2.1504,2.0496 -4.962,4.098 -8.4504,6.1476 -3.5052,2.0484 -6.6372,3.5892 -9.414,4.6056l0 -8.6196c4.9944,-2.3532 9.3636,-5.1984 13.1064,-8.5344 3.7248,-3.3528 6.384,-6.5868 7.9416,-9.7356l5.7396 0 0 73.0332zm22.878 -35.8644c0,-8.6028 0.8796,-15.528 2.658,-20.7612 1.7616,-5.2488 4.4028,-9.2964 7.8912,-12.1404 3.4884,-2.8452 7.8744,-4.2672 13.1568,-4.2672 3.912,0 7.332,0.7956 10.2792,2.37 2.946,1.5576 5.3676,3.8268 7.2984,6.7908 1.9128,2.9628 3.42,6.57 4.5036,10.8204 1.1016,4.2504 1.6428,9.9732 1.6428,17.1876 0,8.5344 -0.8808,15.4092 -2.6244,20.658 -1.7616,5.25 -4.386,9.2964 -7.8744,12.1584 -3.4884,2.862 -7.8912,4.284 -13.2252,4.284 -7.0104,0 -12.5136,-2.5056 -16.5096,-7.5348 -4.7928,-6.0456 -7.1964,-15.918 -7.1964,-29.5656zm9.1776 0c0,11.9376 1.4052,19.8792 4.2,23.8416 2.7936,3.9456 6.2304,5.9268 10.3284,5.9268 4.1148,0 7.5528,-1.998 10.3464,-5.9604 2.7948,-3.9624 4.2,-11.904 4.2,-23.808 0,-11.9724 -1.4052,-19.9308 -4.2,-23.8596 -2.7936,-3.9456 -6.2652,-5.91 -10.4304,-5.91 -4.1148,0 -7.3836,1.7448 -9.8388,5.2152 -3.0648,4.4196 -4.6056,12.6156 -4.6056,24.5544zm52.29 -6.6552l0 -10.1604 10.1772 0 0 10.1604 -10.1772 0zm0 42.5196l0 -10.1772 10.1772 0 0 10.1772 -10.1772 0zm70.206 -8.5848l0 8.5848 -48.0744 0c-0.0672,-2.1504 0.2712,-4.2168 1.0332,-6.198 1.2192,-3.2844 3.1836,-6.5016 5.8764,-9.6852 2.7084,-3.1668 6.6036,-6.8412 11.6832,-11.0076 7.908,-6.4848 13.2588,-11.616 16.0368,-15.4092 2.7768,-3.7752 4.1652,-7.3656 4.1652,-10.7352 0,-3.5388 -1.2696,-6.5196 -3.7932,-8.958 -2.5404,-2.4216 -5.8416,-3.6408 -9.906,-3.6408 -4.3008,0 -7.7388,1.2876 -10.3128,3.8784 -2.5908,2.5728 -3.894,6.1464 -3.9288,10.7016l-9.1776 -0.9312c0.6264,-6.858 2.9976,-12.0744 7.0956,-15.6636 4.098,-3.5904 9.618,-5.3844 16.5264,-5.3844 6.9768,0 12.4968,1.9464 16.5612,5.808 4.0812,3.8772 6.1128,8.67 6.1128,14.3928 0,2.9124 -0.5928,5.7744 -1.7952,8.586 -1.1844,2.8104 -3.1656,5.7732 -5.9268,8.8728 -2.76,3.1152 -7.3488,7.3824 -13.7664,12.8016 -5.3508,4.5036 -8.7888,7.5516 -10.3128,9.1608 -1.524,1.5912 -2.7768,3.2004 -3.7752,4.8264l35.6784 0zm9.5676 -27.2796c0,-8.6028 0.8796,-15.528 2.658,-20.7612 1.7616,-5.2488 4.4028,-9.2964 7.8912,-12.1404 3.4884,-2.8452 7.8744,-4.2672 13.1568,-4.2672 3.912,0 7.332,0.7956 10.2792,2.37 2.946,1.5576 5.3676,3.8268 7.2984,6.7908 1.9128,2.9628 3.42,6.57 4.5036,10.8204 1.1016,4.2504 1.6428,9.9732 1.6428,17.1876 0,8.5344 -0.8808,15.4092 -2.6244,20.658 -1.7616,5.25 -4.386,9.2964 -7.8744,12.1584 -3.4884,2.862 -7.8912,4.284 -13.2252,4.284 -7.0104,0 -12.5136,-2.5056 -16.5096,-7.5348 -4.7928,-6.0456 -7.1964,-15.918 -7.1964,-29.5656zm9.1776 0c0,11.9376 1.4052,19.8792 4.2,23.8416 2.7936,3.9456 6.2304,5.9268 10.3284,5.9268 4.1148,0 7.5528,-1.998 10.3464,-5.9604 2.7948,-3.9624 4.2,-11.904 4.2,-23.808 0,-11.9724 -1.4052,-19.9308 -4.2,-23.8596 -2.7936,-3.9456 -6.2652,-5.91 -10.4304,-5.91 -4.1148,0 -7.3836,1.7448 -9.8388,5.2152 -3.0648,4.4196 -4.6056,12.6156 -4.6056,24.5544zm52.29 -6.6552l0 -10.1604 10.1772 0 0 10.1604 -10.1772 0zm0 42.5196l0 -10.1772 10.1772 0 0 10.1772 -10.1772 0zm23.3172 -19.2024l8.9244 -1.1856c1.032,5.0628 2.7768,8.7036 5.232,10.9392 2.472,2.2356 5.4696,3.3528 9.0084,3.3528 4.2,0 7.7556,-1.4568 10.6512,-4.3692 2.8788,-2.9124 4.3344,-6.5196 4.3344,-10.8204 0,-4.098 -1.3368,-7.4844 -4.0128,-10.1424 -2.6928,-2.6592 -6.096,-3.9972 -10.2276,-3.9972 -1.6932,0 -3.7932,0.3396 -6.2988,0.9996l0.9984 -7.8396c0.5928,0.0672 1.0668,0.1008 1.44,0.1008 3.7932,0 7.2132,-0.9984 10.2612,-2.9796 3.048,-1.9812 4.572,-5.046 4.572,-9.1788 0,-3.2676 -1.1172,-5.994 -3.336,-8.1276 -2.2176,-2.1504 -5.0796,-3.234 -8.5848,-3.234 -3.4716,0 -6.3672,1.1004 -8.67,3.2676 -2.3196,2.1852 -3.81,5.4696 -4.4712,9.8388l-8.9232 -1.5924c1.0836,-5.994 3.5724,-10.6332 7.434,-13.9188 3.8772,-3.2856 8.6868,-4.944 14.4444,-4.944 3.9624,0 7.62,0.8628 10.9548,2.556 3.336,1.7112 5.8932,4.0308 7.6716,6.9768 1.7604,2.946 2.658,6.0624 2.658,9.3816 0,3.132 -0.846,5.994 -2.5392,8.5848 -1.6944,2.574 -4.1832,4.6224 -7.4856,6.1464 4.302,0.9828 7.638,3.048 10.0248,6.1812 2.3712,3.1152 3.5568,7.0272 3.5568,11.718 0,6.3504 -2.304,11.7348 -6.9432,16.1544 -4.6224,4.4196 -10.482,6.6204 -17.5596,6.6204 -6.384,0 -11.6844,-1.896 -15.9012,-5.706 -4.2156,-3.7932 -6.6204,-8.7204 -7.2132,-14.7828zm56.4564 -16.662c0,-8.6028 0.8796,-15.528 2.658,-20.7612 1.7616,-5.2488 4.4028,-9.2964 7.8912,-12.1404 3.4884,-2.8452 7.8744,-4.2672 13.1568,-4.2672 3.912,0 7.332,0.7956 10.2792,2.37 2.946,1.5576 5.3676,3.8268 7.2984,6.7908 1.9128,2.9628 3.42,6.57 4.5036,10.8204 1.1016,4.2504 1.6428,9.9732 1.6428,17.1876 0,8.5344 -0.8808,15.4092 -2.6244,20.658 -1.7616,5.25 -4.386,9.2964 -7.8744,12.1584 -3.4884,2.862 -7.8912,4.284 -13.2252,4.284 -7.0104,0 -12.5136,-2.5056 -16.5096,-7.5348 -4.7928,-6.0456 -7.1964,-15.918 -7.1964,-29.5656zm9.1776 0c0,11.9376 1.4052,19.8792 4.2,23.8416 2.7936,3.9456 6.2304,5.9268 10.3284,5.9268 4.1148,0 7.5528,-1.998 10.3464,-5.9604 2.7948,-3.9624 4.2,-11.904 4.2,-23.808 0,-11.9724 -1.4052,-19.9308 -4.2,-23.8596 -2.7936,-3.9456 -6.2652,-5.91 -10.4304,-5.91 -4.1148,0 -7.3836,1.7448 -9.8388,5.2152 -3.0648,4.4196 -4.6056,12.6156 -4.6056,24.5544z"/>
 </g>
</svg>
